<?xml version="1.0" standalone="no"?>
<!DOCTYPE svg PUBLIC "-//W3C//DTD SVG 20010904//EN"
 "http://www.w3.org/TR/2001/REC-SVG-20010904/DTD/svg10.dtd">
<svg version="1.0" xmlns="http://www.w3.org/2000/svg"
 width="1536.000000pt" height="1024.000000pt" viewBox="0 0 1536.000000 1024.000000"
 preserveAspectRatio="xMidYMid meet">

<g transform="translate(0.000000,1024.000000) scale(0.100000,-0.100000)"
fill="#000000" stroke="none">
<path d="M8886 7316 c-79 -27 -137 -53 -151 -67 -13 -13 -66 -116 -118 -229
-52 -113 -130 -277 -172 -365 -267 -553 -337 -702 -381 -800 -123 -280 -330
-544 -388 -496 -20 17 -21 75 -2 127 7 22 56 131 109 244 110 237 138 314 139
388 0 42 -4 58 -22 77 -93 99 -298 26 -500 -177 -89 -89 -90 -88 -24 45 26 53
27 58 12 74 -15 14 -26 15 -98 5 -100 -14 -177 -50 -208 -96 -23 -34 -53 -109
-132 -329 -105 -291 -458 -656 -638 -659 -73 -1 -116 53 -110 139 l3 47 119
67 c217 121 360 253 435 402 37 72 43 94 45 150 1 75 -17 110 -75 139 -72 37
-212 13 -350 -59 -217 -113 -433 -395 -500 -651 -26 -100 -29 -250 -5 -306 63
-149 217 -198 415 -132 145 49 268 130 389 255 39 41 72 71 72 65 0 -5 -11
-45 -25 -89 -46 -148 -34 -162 108 -120 157 45 183 68 222 194 74 238 122 374
162 452 73 143 229 321 318 363 32 16 39 16 52 4 20 -20 -2 -75 -98 -248 -129
-232 -169 -340 -169 -452 0 -100 44 -158 135 -179 42 -9 62 -8 115 5 36 9 83
27 105 40 42 25 164 129 178 153 19 31 23 9 9 -45 -22 -83 -14 -96 48 -88 71
10 171 42 210 68 50 34 66 69 135 289 58 185 98 274 117 263 4 -3 8 -19 8 -36
0 -53 51 -261 77 -313 32 -65 59 -93 108 -116 51 -24 82 -24 149 0 77 27 137
70 242 173 l90 89 12 -26 c24 -52 64 -94 115 -120 123 -61 351 -10 532 119 28
20 94 79 147 132 l97 96 16 -38 c69 -165 296 -190 542 -59 106 56 188 119 285
218 l77 79 6 -38 c15 -90 64 -158 137 -188 88 -37 268 -9 406 64 101 52 159
103 225 198 100 143 263 262 359 262 48 0 98 -43 98 -84 0 -86 -90 -212 -216
-302 -81 -58 -279 -152 -425 -202 -493 -170 -970 -270 -2634 -552 -165 -28
-388 -66 -495 -86 -107 -19 -283 -51 -390 -70 -665 -120 -1186 -236 -1552
-345 -744 -221 -1229 -469 -1540 -785 -151 -153 -241 -294 -189 -294 4 0 43
23 87 52 102 67 332 184 454 231 374 144 783 198 1077 142 141 -27 304 -94
343 -140 21 -25 38 -17 118 53 314 276 716 484 1342 696 288 97 735 213 1635
426 1155 272 1594 405 1986 599 184 91 327 187 420 280 84 84 119 139 143 220
54 183 -39 320 -216 321 -106 0 -193 -43 -320 -159 l-65 -60 -13 52 c-7 29
-37 111 -65 182 -94 234 -104 296 -59 374 37 67 30 74 -74 69 -158 -6 -239
-66 -318 -236 -183 -394 -418 -692 -628 -798 -91 -45 -150 -47 -191 -4 -32 34
-47 118 -25 145 7 9 52 36 99 62 229 123 397 283 455 433 24 60 25 160 2 195
-34 52 -72 67 -166 62 -144 -6 -267 -68 -415 -209 -96 -92 -171 -189 -224
-295 -35 -67 -81 -196 -81 -223 0 -26 -106 -155 -199 -242 -82 -78 -188 -141
-256 -154 -73 -13 -135 50 -135 140 0 40 16 56 92 90 97 44 239 146 331 238
99 98 141 172 159 281 9 57 8 70 -8 103 -11 21 -35 49 -54 62 -32 22 -43 23
-120 20 -148 -8 -274 -72 -421 -218 -101 -101 -164 -187 -229 -317 -35 -71
-49 -114 -82 -255 -12 -52 -144 -191 -202 -213 -39 -15 -46 -15 -79 -1 -67 28
-120 141 -152 325 l-15 85 32 34 c40 41 124 99 195 136 42 21 67 26 122 26 64
0 73 3 105 30 69 61 85 139 39 190 -33 37 -91 49 -146 31 -49 -17 -144 -87
-284 -212 -153 -136 -223 -193 -229 -187 -5 5 305 623 448 892 127 239 208
405 208 427 0 30 -51 24 -194 -25z m1782 -688 c40 -40 -14 -170 -118 -281 -67
-71 -215 -185 -227 -173 -9 8 44 142 88 224 52 99 115 177 168 213 48 31 70
36 89 17z m585 -191 c16 -45 40 -113 54 -152 28 -78 39 -165 29 -220 -14 -75
-116 -155 -200 -157 -53 -1 -77 12 -143 73 -28 27 -59 49 -69 49 -13 0 -11 6
11 36 55 72 135 200 206 330 40 73 75 131 78 128 2 -2 18 -41 34 -87z m-1488
-11 c35 -53 -22 -168 -140 -287 -69 -69 -200 -167 -210 -157 -8 8 42 134 91
229 65 126 174 238 231 239 7 0 20 -11 28 -24z m-3157 -548 c44 -44 -28 -189
-153 -313 -61 -59 -202 -162 -211 -152 -9 9 58 176 101 249 48 82 133 181 180
210 35 21 66 23 83 6z"/>
<path d="M4818 7119 c-368 -48 -733 -228 -946 -467 -221 -249 -311 -578 -212
-778 35 -71 72 -107 149 -142 49 -22 62 -24 160 -20 75 4 126 12 176 29 73 25
93 51 45 57 -88 11 -149 66 -176 159 -42 146 22 397 144 561 195 261 538 416
887 399 256 -13 419 -97 498 -256 31 -64 32 -69 31 -196 0 -121 -2 -136 -32
-215 -78 -208 -247 -381 -477 -492 l-85 -40 -66 12 c-131 25 -383 -9 -595 -80
-127 -42 -340 -147 -416 -204 -69 -52 -123 -119 -123 -151 0 -53 64 -77 201
-76 310 1 797 177 990 358 l46 43 74 -10 c89 -11 102 -15 156 -52 30 -20 51
-46 74 -94 28 -57 33 -77 37 -167 10 -235 -86 -446 -294 -647 -55 -52 -135
-119 -179 -148 -324 -215 -787 -303 -1021 -193 -36 17 -70 41 -84 61 -25 35
-36 100 -26 154 13 69 133 172 223 191 38 8 52 23 32 36 -23 14 -210 10 -274
-6 -255 -65 -403 -271 -323 -446 32 -71 75 -112 160 -155 128 -65 212 -79 468
-79 207 0 236 2 365 28 451 91 794 256 1040 502 220 219 324 435 328 679 3
211 -82 359 -255 446 l-78 39 58 31 c205 109 379 325 427 530 22 94 20 243 -5
321 -75 245 -308 416 -645 474 -98 16 -342 19 -457 4z m-90 -1536 c13 -93
-605 -294 -669 -217 -12 15 -9 21 23 49 104 89 422 196 573 192 63 -2 70 -4
73 -24z"/>
<path d="M4624 6650 c-12 -5 -24 -15 -27 -22 -6 -18 29 -119 45 -130 15 -9
243 -9 397 1 l103 6 30 57 c24 47 27 60 18 78 -11 20 -17 20 -278 19 -147 0
-276 -5 -288 -9z"/>
<path d="M4650 6476 c0 -3 -11 -60 -24 -128 -43 -214 -99 -549 -93 -554 3 -3
56 0 119 7 83 9 134 10 188 2 59 -8 85 -7 122 4 51 15 52 17 67 108 5 33 30
172 55 308 25 137 46 250 46 253 0 2 -108 4 -240 4 -132 0 -240 -2 -240 -4z"/>
<path d="M5004 5569 c-102 -114 -409 -266 -677 -334 -233 -59 -438 -72 -516
-31 l-33 18 7 -44 c16 -104 108 -224 212 -276 54 -28 169 -62 206 -62 8 0 18
-4 21 -8 2 -4 -8 -66 -23 -137 -43 -197 -42 -185 -14 -213 24 -24 29 -25 111
-19 153 10 359 82 481 168 95 66 99 76 92 229 -7 144 -3 141 -108 94 -32 -15
-62 -28 -68 -31 -5 -2 1 4 14 14 147 108 248 243 306 408 20 56 33 245 18 245
-6 0 -18 -10 -29 -21z"/>
</g>
</svg>
